<svg width="512" height="512" viewBox="0 0 512 512" fill="none" xmlns="http://www.w3.org/2000/svg">
<rect width="512" height="512" fill="#15181E"/>
<path opacity="0.989" fill-rule="evenodd" clip-rule="evenodd" d="M420.5 190.731C420.5 193.306 420.5 195.88 420.5 198.454C417.762 204.114 413.257 206.366 406.985 205.211C404.317 204.198 401.743 203.019 399.263 201.672C351.579 178.367 303.742 155.2 255.75 132.168C207.778 155.189 159.941 178.357 112.237 201.672C108.188 204.632 103.683 205.811 98.7227 205.211C95.2267 203.966 92.6525 201.713 91 198.454C91 195.88 91 193.306 91 190.731C92.8489 187.277 95.6376 184.811 99.3662 183.331C149.619 159.214 199.816 134.973 249.958 110.609C251.86 109.972 253.791 109.436 255.75 109C257.709 109.436 259.64 109.972 261.542 110.609C313.026 135.493 364.511 160.377 415.995 185.261C417.896 186.832 419.398 188.656 420.5 190.731Z" fill="#00B9AE"/>
<path fill-rule="evenodd" clip-rule="evenodd" d="M399.263 201.672C399.263 205.533 399.263 209.395 399.263 213.256C353.315 190.712 307.194 168.509 260.898 146.648C257.466 146.219 254.034 146.219 250.602 146.648C204.306 168.509 158.185 190.712 112.237 213.256C112.237 209.395 112.237 205.533 112.237 201.672C159.941 178.357 207.778 155.189 255.75 132.168C303.742 155.2 351.579 178.367 399.263 201.672Z" fill="#00B9AE" fill-opacity="0.8"/>
<path fill-rule="evenodd" clip-rule="evenodd" d="M399.263 213.256C399.684 216.048 399.04 218.516 397.332 220.657C392.884 221.547 388.38 221.869 383.817 221.622C372.814 220.77 361.873 220.77 350.996 221.622C337.052 221.622 323.109 221.622 309.165 221.622C298.439 220.764 287.713 220.764 276.987 221.622C262.829 221.622 248.671 221.622 234.513 221.622C223.787 220.764 213.061 220.764 202.335 221.622C188.391 221.622 174.448 221.622 160.504 221.622C149.626 220.77 138.686 220.77 127.683 221.622C123.121 221.869 118.616 221.547 114.168 220.657C112.46 218.516 111.817 216.048 112.237 213.256C158.185 190.712 204.306 168.509 250.602 146.648C254.034 146.219 257.466 146.219 260.898 146.648C307.194 168.509 353.315 190.712 399.263 213.256Z" fill="#00B9AE"/>
<path fill-rule="evenodd" clip-rule="evenodd" d="M250.602 163.059C258.013 161.715 264.127 163.86 268.943 169.494C270.195 172.625 271.803 175.521 273.77 178.182C277.202 178.396 280.634 178.611 284.066 178.826C292.862 181.935 295.114 187.62 290.824 195.88C289.253 197.469 287.43 198.648 285.354 199.419C265.403 199.849 245.453 199.849 225.503 199.419C218.933 195.798 217.11 190.542 220.033 183.652C221.49 181.765 223.314 180.37 225.503 179.469C229.812 178.854 234.102 178.21 238.374 177.539C240.201 172.814 242.99 168.739 246.74 165.311C248.173 164.705 249.461 163.954 250.602 163.059Z" fill="#15181E"/>
<path fill-rule="evenodd" clip-rule="evenodd" d="M160.504 221.622C160.504 225.054 160.504 228.487 160.504 231.919C155.087 231.658 149.724 231.979 144.415 232.884C141.737 234.694 139.913 237.161 138.945 240.285C138.623 279.971 138.516 319.656 138.623 359.343C134.976 359.343 131.329 359.343 127.683 359.343C127.683 313.436 127.683 267.529 127.683 221.622C138.686 220.77 149.626 220.77 160.504 221.622Z" fill="#00B9AE" fill-opacity="0.8"/>
<path fill-rule="evenodd" clip-rule="evenodd" d="M234.513 221.622C234.513 225.054 234.513 228.487 234.513 231.919C229.788 231.812 225.069 231.919 220.354 232.241C217.244 233.635 214.992 235.888 213.597 238.998C213.275 279.112 213.168 319.227 213.275 359.343C209.628 359.343 205.982 359.343 202.335 359.343C202.335 313.436 202.335 267.529 202.335 221.622C213.061 220.764 223.787 220.764 234.513 221.622Z" fill="#00B9AE" fill-opacity="0.8"/>
<path opacity="0.998" fill-rule="evenodd" clip-rule="evenodd" d="M309.165 221.622C309.165 225.054 309.165 228.487 309.165 231.919C304.441 231.812 299.722 231.919 295.007 232.241C292.144 233.601 289.892 235.639 288.25 238.354C287.928 278.683 287.82 319.012 287.928 359.343C284.281 359.343 280.634 359.343 276.987 359.343C276.987 313.436 276.987 267.529 276.987 221.622C287.713 220.764 298.439 220.764 309.165 221.622Z" fill="#00B9AE" fill-opacity="0.8"/>
<path opacity="0.967" fill-rule="evenodd" clip-rule="evenodd" d="M383.817 221.622C383.817 225.054 383.817 228.487 383.817 231.919C378.879 231.812 373.945 231.919 369.016 232.241C365.649 233.677 363.397 236.144 362.258 239.642C361.937 279.541 361.829 319.442 361.937 359.343C358.289 359.343 354.643 359.343 350.996 359.343C350.996 313.436 350.996 267.529 350.996 221.622C361.873 220.77 372.814 220.77 383.817 221.622Z" fill="#00B9AE" fill-opacity="0.8"/>
<path fill-rule="evenodd" clip-rule="evenodd" d="M160.504 231.919C160.504 274.394 160.504 316.868 160.504 359.343C153.21 359.343 145.917 359.343 138.623 359.343C138.516 319.656 138.623 279.971 138.945 240.285C139.913 237.161 141.737 234.694 144.415 232.884C149.724 231.979 155.087 231.658 160.504 231.919Z" fill="#00B9AE"/>
<path opacity="0.999" fill-rule="evenodd" clip-rule="evenodd" d="M234.513 231.919C234.513 274.394 234.513 316.868 234.513 359.343C227.434 359.343 220.355 359.343 213.275 359.343C213.168 319.227 213.275 279.112 213.597 238.998C214.992 235.888 217.244 233.635 220.355 232.241C225.069 231.919 229.788 231.812 234.513 231.919Z" fill="#00B9AE"/>
<path opacity="0.987" fill-rule="evenodd" clip-rule="evenodd" d="M309.165 231.919C309.165 274.394 309.165 316.868 309.165 359.343C302.086 359.343 295.007 359.343 287.928 359.343C287.82 319.013 287.928 278.684 288.25 238.355C289.892 235.639 292.144 233.601 295.007 232.241C299.722 231.919 304.441 231.812 309.165 231.919Z" fill="#00B9AE"/>
<path opacity="0.975" fill-rule="evenodd" clip-rule="evenodd" d="M383.817 231.919C383.817 274.394 383.817 316.868 383.817 359.343C376.524 359.343 369.23 359.343 361.937 359.343C361.829 319.442 361.937 279.541 362.258 239.642C363.397 236.144 365.649 233.677 369.016 232.241C373.945 231.919 378.879 231.812 383.817 231.919Z" fill="#00B9AE"/>
<path opacity="0.981" fill-rule="evenodd" clip-rule="evenodd" d="M127.683 359.343C131.329 359.343 134.976 359.343 138.623 359.343C138.623 366.422 138.623 373.501 138.623 380.58C133.26 380.58 127.897 380.58 122.534 380.58C122.427 374.57 122.534 368.563 122.856 362.561C123.764 360.444 125.372 359.371 127.683 359.343Z" fill="#00B9AE" fill-opacity="0.7"/>
<path opacity="0.989" fill-rule="evenodd" clip-rule="evenodd" d="M138.623 359.343C145.917 359.343 153.21 359.343 160.504 359.343C162.866 359.231 164.475 360.304 165.331 362.561C165.652 368.563 165.759 374.57 165.652 380.58C156.643 380.58 147.633 380.58 138.623 380.58C138.623 373.501 138.623 366.422 138.623 359.343Z" fill="#00B9AE"/>
<path opacity="0.99" fill-rule="evenodd" clip-rule="evenodd" d="M202.335 359.343C205.982 359.343 209.628 359.343 213.275 359.343C213.275 366.422 213.275 373.501 213.275 380.58C207.913 380.58 202.549 380.58 197.187 380.58C197.08 374.356 197.187 368.134 197.508 361.917C198.612 360.053 200.221 359.194 202.335 359.343Z" fill="#00B9AE" fill-opacity="0.7"/>
<path opacity="0.983" fill-rule="evenodd" clip-rule="evenodd" d="M213.275 359.343C220.354 359.343 227.434 359.343 234.513 359.343C237.405 359.126 239.229 360.413 239.983 363.204C240.305 368.992 240.412 374.784 240.305 380.58C231.295 380.58 222.285 380.58 213.275 380.58C213.275 373.501 213.275 366.422 213.275 359.343Z" fill="#00B9AE"/>
<path opacity="0.973" fill-rule="evenodd" clip-rule="evenodd" d="M276.987 359.343C280.634 359.343 284.281 359.343 287.928 359.343C287.928 366.422 287.928 373.501 287.928 380.58C282.35 380.58 276.773 380.58 271.195 380.58C271.088 374.784 271.195 368.992 271.517 363.204C272.271 360.413 274.095 359.126 276.987 359.343Z" fill="#00B9AE" fill-opacity="0.7"/>
<path opacity="0.994" fill-rule="evenodd" clip-rule="evenodd" d="M287.928 359.343C295.007 359.343 302.086 359.343 309.165 359.343C311.279 359.194 312.888 360.053 313.992 361.917C314.313 368.134 314.42 374.356 314.313 380.58C305.518 380.58 296.723 380.58 287.928 380.58C287.928 373.501 287.928 366.422 287.928 359.343Z" fill="#00B9AE"/>
<path opacity="0.982" fill-rule="evenodd" clip-rule="evenodd" d="M350.996 359.343C354.643 359.343 358.29 359.343 361.937 359.343C361.937 366.422 361.937 373.501 361.937 380.58C356.574 380.58 351.21 380.58 345.848 380.58C345.741 374.57 345.848 368.563 346.169 362.561C347.025 360.304 348.634 359.231 350.996 359.343Z" fill="#00B9AE" fill-opacity="0.7"/>
<path opacity="0.987" fill-rule="evenodd" clip-rule="evenodd" d="M361.937 359.343C369.23 359.343 376.524 359.343 383.817 359.343C386.128 359.371 387.737 360.444 388.644 362.561C388.966 368.563 389.073 374.57 388.966 380.58C379.956 380.58 370.946 380.58 361.937 380.58C361.937 373.501 361.937 366.422 361.937 359.343Z" fill="#00B9AE"/>
<path opacity="0.998" fill-rule="evenodd" clip-rule="evenodd" d="M122.534 380.58C127.897 380.58 133.26 380.58 138.623 380.58C147.633 380.58 156.643 380.58 165.652 380.58C176.164 380.58 186.675 380.58 197.187 380.58C202.549 380.58 207.913 380.58 213.275 380.58C222.285 380.58 231.295 380.58 240.305 380.58C250.602 380.58 260.898 380.58 271.195 380.58C276.773 380.58 282.35 380.58 287.928 380.58C296.723 380.58 305.518 380.58 314.313 380.58C324.825 380.58 335.336 380.58 345.848 380.58C351.21 380.58 356.574 380.58 361.937 380.58C370.946 380.58 379.956 380.58 388.966 380.58C397.12 380.473 405.272 380.58 413.421 380.902C416.971 381.986 419.33 384.238 420.5 387.659C420.5 390.233 420.5 392.808 420.5 395.382C418.442 399.207 415.224 401.46 410.847 402.139C307.449 402.568 204.051 402.568 100.653 402.139C96.078 401.736 92.8603 399.484 91 395.382C91 392.808 91 390.233 91 387.659C92.1699 384.238 94.5296 381.986 98.0791 380.902C106.228 380.58 114.38 380.473 122.534 380.58Z" fill="#00B9AE"/>
</svg>
