<svg width="512" height="512" viewBox="0 0 512 512" fill="none" xmlns="http://www.w3.org/2000/svg">
<path opacity="0.989" fill-rule="evenodd" clip-rule="evenodd" d="M506.894 156.493C506.894 160.414 506.894 164.335 506.894 168.257C502.724 176.877 495.863 180.308 486.309 178.549C482.245 177.006 478.324 175.21 474.546 173.158C401.914 137.661 329.048 102.371 255.947 67.2895C182.876 102.356 110.011 137.645 37.3487 173.158C31.1805 177.666 24.3186 179.463 16.7632 178.549C11.4382 176.651 7.51712 173.221 5 168.257C5 164.335 5 160.414 5 156.493C7.81625 151.232 12.0641 147.475 17.7434 145.22C94.2885 108.486 170.749 71.5627 247.125 34.4507C250.023 33.4812 252.963 32.6643 255.947 32C258.931 32.6643 261.872 33.4812 264.77 34.4507C343.191 72.3542 421.612 110.257 500.033 148.161C502.928 150.554 505.215 153.332 506.894 156.493Z" fill="#00B9AE"/>
<path fill-rule="evenodd" clip-rule="evenodd" d="M474.546 173.158C474.546 179.039 474.546 184.921 474.546 190.803C404.559 156.463 334.306 122.644 263.789 89.3454C258.562 88.6918 253.333 88.6918 248.105 89.3454C177.588 122.644 107.335 156.463 37.3486 190.803C37.3486 184.921 37.3486 179.039 37.3486 173.158C110.011 137.645 182.876 102.356 255.947 67.2895C329.048 102.371 401.914 137.661 474.546 173.158Z" fill="#00B9AE" fill-opacity="0.8"/>
<path fill-rule="evenodd" clip-rule="evenodd" d="M474.546 190.803C475.187 195.056 474.207 198.814 471.605 202.076C464.831 203.432 457.969 203.922 451.02 203.546C434.259 202.248 417.595 202.248 401.026 203.546C379.787 203.546 358.548 203.546 337.309 203.546C320.971 202.239 304.634 202.239 288.296 203.546C266.73 203.546 245.164 203.546 223.599 203.546C207.261 202.239 190.924 202.239 174.586 203.546C153.346 203.546 132.108 203.546 110.868 203.546C94.2999 202.248 77.6354 202.248 60.8751 203.546C53.9262 203.922 47.0643 203.432 40.2896 202.076C37.688 198.814 36.7078 195.056 37.3488 190.803C107.336 156.463 177.588 122.644 248.105 89.3454C253.333 88.6918 258.562 88.6918 263.789 89.3454C334.307 122.644 404.559 156.463 474.546 190.803Z" fill="#00B9AE"/>
<path fill-rule="evenodd" clip-rule="evenodd" d="M110.868 203.546C110.868 208.774 110.868 214.002 110.868 219.23C102.617 218.832 94.4482 219.322 86.3618 220.701C82.2823 223.457 79.5049 227.214 78.0296 231.974C77.5395 292.422 77.3761 352.871 77.5395 413.322C71.9846 413.322 66.4299 413.322 60.875 413.322C60.875 343.397 60.875 273.471 60.875 203.546C77.6353 202.248 94.2998 202.248 110.868 203.546Z" fill="#00B9AE" fill-opacity="0.8"/>
<path fill-rule="evenodd" clip-rule="evenodd" d="M223.599 203.546C223.599 208.774 223.599 214.002 223.599 219.23C216.402 219.067 209.214 219.23 202.033 219.72C197.295 221.845 193.864 225.275 191.74 230.013C191.25 291.115 191.086 352.218 191.25 413.322C185.695 413.322 180.141 413.322 174.585 413.322C174.585 343.397 174.585 273.471 174.585 203.546C190.923 202.239 207.261 202.239 223.599 203.546Z" fill="#00B9AE" fill-opacity="0.8"/>
<path opacity="0.998" fill-rule="evenodd" clip-rule="evenodd" d="M337.309 203.546C337.309 208.774 337.309 214.002 337.309 219.23C330.113 219.067 322.925 219.23 315.743 219.72C311.383 221.793 307.952 224.897 305.45 229.033C304.96 290.462 304.797 351.891 304.96 413.322C299.405 413.322 293.851 413.322 288.296 413.322C288.296 343.397 288.296 273.471 288.296 203.546C304.634 202.239 320.971 202.239 337.309 203.546Z" fill="#00B9AE" fill-opacity="0.8"/>
<path opacity="0.967" fill-rule="evenodd" clip-rule="evenodd" d="M451.02 203.546C451.02 208.774 451.02 214.002 451.02 219.23C443.497 219.067 435.981 219.23 428.473 219.72C423.346 221.908 419.915 225.666 418.181 230.993C417.691 291.769 417.527 352.545 417.691 413.322C412.135 413.322 406.581 413.322 401.026 413.322C401.026 343.397 401.026 273.471 401.026 203.546C417.595 202.248 434.259 202.248 451.02 203.546Z" fill="#00B9AE" fill-opacity="0.8"/>
<path fill-rule="evenodd" clip-rule="evenodd" d="M110.868 219.23C110.868 283.928 110.868 348.625 110.868 413.322C99.7586 413.322 88.6489 413.322 77.5393 413.322C77.3759 352.871 77.5393 292.422 78.0294 231.974C79.5047 227.214 82.2821 223.457 86.3617 220.701C94.4481 219.322 102.617 218.832 110.868 219.23Z" fill="#00B9AE"/>
<path opacity="0.999" fill-rule="evenodd" clip-rule="evenodd" d="M223.599 219.23C223.599 283.928 223.599 348.625 223.599 413.322C212.816 413.322 202.033 413.322 191.25 413.322C191.086 352.219 191.25 291.115 191.74 230.013C193.864 225.275 197.295 221.845 202.033 219.72C209.214 219.23 216.402 219.067 223.599 219.23Z" fill="#00B9AE"/>
<path opacity="0.987" fill-rule="evenodd" clip-rule="evenodd" d="M337.309 219.23C337.309 283.928 337.309 348.625 337.309 413.322C326.526 413.322 315.743 413.322 304.96 413.322C304.797 351.891 304.96 290.462 305.45 229.033C307.952 224.897 311.383 221.793 315.743 219.72C322.925 219.23 330.113 219.067 337.309 219.23Z" fill="#00B9AE"/>
<path opacity="0.975" fill-rule="evenodd" clip-rule="evenodd" d="M451.019 219.23C451.019 283.928 451.019 348.625 451.019 413.322C439.91 413.322 428.8 413.322 417.691 413.322C417.527 352.545 417.691 291.769 418.181 230.993C419.915 225.666 423.346 221.908 428.473 219.72C435.981 219.23 443.497 219.067 451.019 219.23Z" fill="#00B9AE"/>
<path opacity="0.981" fill-rule="evenodd" clip-rule="evenodd" d="M60.875 413.322C66.4298 413.322 71.9846 413.322 77.5394 413.322C77.5394 424.105 77.5394 434.888 77.5394 445.671C69.3706 445.671 61.2017 445.671 53.0328 445.671C52.8696 436.516 53.033 427.366 53.523 418.223C54.9054 414.999 57.3561 413.365 60.875 413.322Z" fill="#00B9AE" fill-opacity="0.7"/>
<path opacity="0.989" fill-rule="evenodd" clip-rule="evenodd" d="M77.5394 413.322C88.649 413.322 99.7587 413.322 110.868 413.322C114.466 413.153 116.917 414.786 118.22 418.223C118.71 427.366 118.873 436.516 118.71 445.671C104.987 445.671 91.2631 445.671 77.5394 445.671C77.5394 434.888 77.5394 424.105 77.5394 413.322Z" fill="#00B9AE"/>
<path opacity="0.99" fill-rule="evenodd" clip-rule="evenodd" d="M174.585 413.322C180.141 413.322 185.695 413.322 191.25 413.322C191.25 424.105 191.25 434.888 191.25 445.671C183.081 445.671 174.912 445.671 166.743 445.671C166.581 436.19 166.743 426.714 167.233 417.243C168.915 414.403 171.365 413.096 174.585 413.322Z" fill="#00B9AE" fill-opacity="0.7"/>
<path opacity="0.983" fill-rule="evenodd" clip-rule="evenodd" d="M191.25 413.322C202.033 413.322 212.816 413.322 223.599 413.322C228.004 412.992 230.782 414.952 231.931 419.204C232.421 428.02 232.584 436.843 232.421 445.671C218.697 445.671 204.974 445.671 191.25 445.671C191.25 434.888 191.25 424.105 191.25 413.322Z" fill="#00B9AE"/>
<path opacity="0.973" fill-rule="evenodd" clip-rule="evenodd" d="M288.296 413.322C293.851 413.322 299.405 413.322 304.96 413.322C304.96 424.105 304.96 434.888 304.96 445.671C296.464 445.671 287.97 445.671 279.474 445.671C279.311 436.843 279.474 428.02 279.964 419.204C281.113 414.952 283.891 412.992 288.296 413.322Z" fill="#00B9AE" fill-opacity="0.7"/>
<path opacity="0.994" fill-rule="evenodd" clip-rule="evenodd" d="M304.96 413.322C315.743 413.322 326.526 413.322 337.309 413.322C340.529 413.096 342.98 414.403 344.661 417.243C345.151 426.714 345.314 436.19 345.151 445.671C331.754 445.671 318.358 445.671 304.96 445.671C304.96 434.888 304.96 424.105 304.96 413.322Z" fill="#00B9AE"/>
<path opacity="0.982" fill-rule="evenodd" clip-rule="evenodd" d="M401.026 413.322C406.581 413.322 412.135 413.322 417.691 413.322C417.691 424.105 417.691 434.888 417.691 445.671C409.522 445.671 401.353 445.671 393.184 445.671C393.021 436.516 393.184 427.366 393.674 418.223C394.978 414.786 397.429 413.153 401.026 413.322Z" fill="#00B9AE" fill-opacity="0.7"/>
<path opacity="0.987" fill-rule="evenodd" clip-rule="evenodd" d="M417.69 413.322C428.8 413.322 439.91 413.322 451.019 413.322C454.539 413.365 456.989 414.999 458.371 418.223C458.861 427.366 459.024 436.516 458.861 445.671C445.138 445.671 431.414 445.671 417.69 445.671C417.69 434.888 417.69 424.105 417.69 413.322Z" fill="#00B9AE"/>
<path opacity="0.998" fill-rule="evenodd" clip-rule="evenodd" d="M53.0329 445.671C61.2017 445.671 69.3706 445.671 77.5394 445.671C91.2631 445.671 104.987 445.671 118.71 445.671C134.721 445.671 150.733 445.671 166.743 445.671C174.912 445.671 183.081 445.671 191.25 445.671C204.974 445.671 218.697 445.671 232.421 445.671C248.105 445.671 263.789 445.671 279.474 445.671C287.969 445.671 296.464 445.671 304.96 445.671C318.358 445.671 331.754 445.671 345.151 445.671C361.162 445.671 377.173 445.671 393.184 445.671C401.353 445.671 409.522 445.671 417.691 445.671C431.414 445.671 445.138 445.671 458.862 445.671C471.283 445.507 483.699 445.671 496.112 446.161C501.519 447.812 505.112 451.243 506.894 456.454C506.894 460.375 506.894 464.296 506.894 468.217C503.76 474.044 498.858 477.474 492.191 478.51C334.695 479.163 177.2 479.163 19.7039 478.51C12.7349 477.896 7.83354 474.465 5 468.217C5 464.296 5 460.375 5 456.454C6.78193 451.243 10.3762 447.812 15.7829 446.161C28.1953 445.671 40.6119 445.507 53.0329 445.671Z" fill="#00B9AE"/>
</svg>
